<svg xmlns="http://www.w3.org/2000/svg" viewBox="0 0 115.22 136.07"><defs><style>.cls-1{fill:#fff;}</style></defs><g id="Layer_2" data-name="Layer 2"><g id="Layer_1-2" data-name="Layer 1"><path class="cls-1" d="M114.45,105.43a4.66,4.66,0,0,1-6.45,1.33L62.27,76.68v54.73a4.66,4.66,0,0,1-9.32,0V76.68L7.22,106.76A4.66,4.66,0,0,1,2.1,99L49.13,68,2.1,37.1a4.66,4.66,0,1,1,5.12-7.79L53,59.39V4.66a4.66,4.66,0,1,1,9.32,0V59.39L108,29.31a4.66,4.66,0,0,1,5.12,7.79L66.09,68l47,30.93A4.66,4.66,0,0,1,114.45,105.43Z"/></g></g></svg>